<svg xmlns="http://www.w3.org/2000/svg" viewBox="0 0 420 335" role="img" aria-labelledby="map-ch04-t map-ch04-d" class="chapter-map"><title id="map-ch04-t">Chapter 4: the Baspa valley</title><desc id="map-ch04-d">The Baspa valley from the Karcham turn-off to the road end beyond Chitkul, with the footpath towards Lamkhaga La. Places: Karcham, Sangla, Kamru, Batseri, Rakcham, Chitkul, Lamkhaga La (off the map, south-east).</desc><defs><marker id="map-ch04-ah" viewBox="0 0 10 10" refX="7" refY="5" markerWidth="5" markerHeight="5" orient="auto"><path class="m-arrowhead" d="M0 0L10 5L0 10Z"/></marker><clipPath id="map-ch04-clip"><rect width="420" height="287.1"/></clipPath></defs><style>.m-bg{fill:var(--map-land,#efebe4)}.m-water{fill:var(--map-water,#b9d3e3);stroke:none}.m-river{fill:none;stroke:var(--map-water,#9cc0d8);stroke-width:1.6;stroke-linecap:round;stroke-linejoin:round}.m-river-major{stroke-width:2.6}.m-road{fill:none;stroke:var(--map-road,#c9c2b7);stroke-width:1.1;stroke-linecap:round;stroke-linejoin:round}.m-road-major{stroke-width:1.8}.m-track{fill:none;stroke:var(--map-road,#c9c2b7);stroke-width:.9;stroke-dasharray:3 2}.m-route{fill:none;stroke:var(--route,#3F7FBF);stroke-width:3.4;stroke-linecap:round;stroke-linejoin:round}.m-route-casing{fill:none;stroke:var(--map-halo,#f3f2f2);stroke-width:6;stroke-linecap:round;stroke-linejoin:round}.m-alt{fill:none;stroke:var(--route-alt,#8A8A85);stroke-width:2;stroke-dasharray:5 3;stroke-linecap:round}.m-walk{fill:none;stroke:var(--route,#3F7FBF);stroke-width:2;stroke-dasharray:1.5 3.5;stroke-linecap:round}.m-boundary{fill:none;stroke:var(--map-boundary,#a39a8e);stroke-width:1.2;stroke-dasharray:7 3 1.5 3}.m-caution{fill:none;stroke:var(--caution,#D9A441);stroke-width:4;stroke-linecap:round;opacity:.9}.m-caution-zone{fill:var(--caution,#D9A441);fill-opacity:.28;stroke:var(--caution,#D9A441);stroke-width:1.4}.m-note-line{fill:none;stroke:var(--map-label,#201f1d);stroke-width:1.1;stroke-dasharray:4 3;opacity:.75}.m-bearing{fill:none;stroke:var(--map-label,#201f1d);stroke-width:1.1;stroke-dasharray:2 3}.m-arrow{fill:none;stroke:var(--route,#3F7FBF);stroke-width:2.2}.m-arrowhead{fill:var(--route,#3F7FBF)}.m-night{fill:var(--route,#3F7FBF);stroke:var(--map-halo,#f3f2f2);stroke-width:1.6}.m-night-num{fill:#fff;font-size:11px;font-weight:600;text-anchor:middle}.m-end{fill:var(--map-halo,#f3f2f2);stroke:var(--map-label,#201f1d);stroke-width:2.2}.m-stop{fill:var(--map-halo,#f3f2f2);stroke:var(--map-label,#201f1d);stroke-width:1.8}.m-pass{fill:var(--map-label,#201f1d);stroke:var(--map-halo,#f3f2f2);stroke-width:1.2}.m-check{fill:var(--map-halo,#f3f2f2);stroke:var(--map-label,#201f1d);stroke-width:1.6}.m-glyph{fill:var(--practical,#6FA8C7);stroke:var(--map-halo,#f3f2f2);stroke-width:.8}.m-book{fill:var(--map-halo,#f3f2f2);stroke:var(--accent,#a06f24);stroke-width:1.4;stroke-linejoin:round}text{font-family:inherit;paint-order:stroke;stroke:var(--map-halo,#f3f2f2);stroke-width:3.2px;stroke-linejoin:round}.m-label{fill:var(--map-label,#201f1d);font-size:13.5px}.m-label-night{font-weight:600}.m-label-minor{fill:var(--map-label,#201f1d);font-size:12px}.m-label-water{fill:var(--map-water-label,#3b6e8f);font-size:11.5px;font-style:italic}.m-label-note{fill:var(--map-label,#201f1d);font-size:11.5px;font-style:italic}.m-label-caution{fill:var(--caution-ink,#8a5c12);font-size:11.5px;font-weight:600}.m-small{fill:var(--map-muted,#6b6661);font-size:10.5px}</style><rect class="m-bg" width="420" height="287.1"/><g clip-path="url(#map-ch04-clip)"><path class="m-water" d="M141.6 136.0L141.6 136.0Z"/><path class="m-water" d="M70.9 280.6L70.9 280.6Z"/><path class="m-water" d="M36.6 184.7L36.6 184.7Z"/><path class="m-river m-river-major" d="M186.4 -24.7L186.2 -14.2L190.5 -2.4L185.6 4.0L184.4 11.4L179.0 14.8L172.0 16.2L161.8 19.9L155.2 20.3L144.3 28.5L136.4 30.6L128.3 37.5L115.5 45.0L104.8 44.1L102.6 42.8L94.3 43.9L90.3 45.9L79.5 45.4L76.6 46.1L70.9 44.8L55.9 26.1L37.5 20.0L27.4 13.4L24.7 14.0"/><path class="m-river m-river-major" d="M24.7 14.0L17.6 16.0L13.0 15.8L7.6 19.2L4.6 22.9L-7.8 22.7L-16.7 17.9L-24.4 18.9"/><path class="m-river" d="M444.8 17.7L439.8 11.4L436.2 8.8L435.7 3.3L425.9 -8.3L426.3 -9.9L423.1 -13.6L423.1 -23.0L421.9 -25.1"/><path class="m-river m-river-major" d="M444.1 268.4L438.3 264.4L436.9 261.3L428.9 260.0L428.3 258.6L419.3 253.3L409.6 254.2L402.8 251.4L392.1 251.3L390.9 249.5L388.3 249.6L384.5 246.9L379.2 248.2L369.8 246.5L358.2 248.6L357.4 249.6L354.5 247.5L340.6 244.8L328.3 236.7L325.3 236.6L312.0 223.8L302.0 220.7L301.6 219.3L294.1 214.7L288.4 208.7L286.5 208.5L284.1 206.1L275.8 196.7L270.3 188.2L267.9 186.5L263.5 186.7L259.1 181.4L256.3 181.0L254.6 179.3L250.3 178.9L243.8 180.4L239.6 177.5L234.3 178.5L229.5 177.6L226.1 172.5L218.5 171.0L218.8 168.7L217.0 165.3L212.1 161.1L204.7 160.4L200.5 161.6L193.8 157.5L188.0 155.7L179.5 149.8L170.0 147.5L166.2 144.9L155.8 144.6L152.9 143.5L145.0 139.9L139.0 133.2L134.6 130.0L123.4 127.0L118.9 123.2L114.9 122.6L113.3 120.0L107.5 119.0L98.9 109.3L92.1 99.3L86.1 96.1L84.3 88.3L76.5 83.7L72.7 78.7L71.4 69.9L69.0 67.1L72.3 60.5L72.7 55.9L72.6 49.2L70.9 44.8"/><path class="m-river" d="M33.7 249.2L33.3 255.7L38.6 263.7L38.5 265.9L29.4 269.8L28.9 271.4L22.9 276.2L10.2 284.0L4.8 285.6L-1.2 290.8L-7.1 292.2L-9.2 295.3L-13.3 298.0L-24.1 300.1"/><path class="m-boundary" d="M35.5 231.5L44.9 221.8L47.6 214.1L51.7 211.5L50.3 200.8L37.1 191.7L32.7 195.8L27.5 194.7L23.0 185.6L12.7 180.7L8.6 170.5L0.2 168.1L-2.1 165.3L-5.2 166.0"/><path class="m-boundary" d="M206.7 291.1L199.3 281.5L200.4 278.7L180.3 282.1L173.0 281.1L167.7 277.7L165.4 278.9L160.7 277.7L156.0 274.0L150.1 262.4L146.0 258.3L137.2 257.6L137.4 261.5L133.2 269.1L125.7 270.5L122.5 275.4L118.6 276.3L115.6 280.1L106.8 281.4L102.2 274.8L89.6 274.1L85.2 269.3L78.6 267.6L73.0 261.1L69.7 261.2L66.3 264.0L56.5 251.6L53.3 251.0L49.4 254.1L35.5 231.5"/><path class="m-boundary" d="M206.7 291.1L199.3 281.5L200.4 278.7L180.3 282.1L173.0 281.1L167.7 277.7L165.4 278.9L160.7 277.7L156.0 274.0L150.1 262.4L146.0 258.3L137.2 257.6L137.4 261.5L133.2 269.1L125.7 270.5L122.5 275.4L118.6 276.3L115.6 280.1L106.8 281.4L102.2 274.8L89.6 274.1L85.2 269.3L78.6 267.6L73.0 261.1L69.7 261.2L66.3 264.0L56.5 251.6L53.3 251.0L49.4 254.1L35.5 231.5"/><path class="m-boundary" d="M35.5 231.5L44.9 221.8L47.6 214.1L51.7 211.5L50.3 200.8L37.1 191.7L32.7 195.8L27.5 194.7L23.0 185.6L12.7 180.7L8.6 170.5L0.2 168.1L-2.1 165.3L-5.2 166.0"/><path class="m-road" d="M67.0 39.8L66.9 39.8"/><path class="m-road" d="M66.9 39.8L66.1 40.6"/><path class="m-road" d="M66.1 40.6L66.0 41.0"/><path class="m-road" d="M148.8 5.3L149.4 11.6L148.1 13.1L144.5 13.0L142.7 11.0L142.7 15.6L141.3 17.0L138.0 14.8L135.2 19.0L130.1 20.4L129.6 22.0"/><path class="m-road" d="M158.3 -24.2L158.1 -21.3L159.4 -23.6L157.2 -18.5L157.8 -10.7L154.9 -9.5"/><path class="m-road" d="M442.8 13.9L441.1 9.2L437.9 7.0L435.9 0.2L432.4 -2.9L430.4 -6.2L430.4 -8.2L426.8 -12.1L427.0 -14.2L425.4 -14.8L425.1 -16.6L426.5 -18.7L425.5 -24.3"/><path class="m-road" d="M188.6 -24.6L187.4 -21.7L187.0 -14.7L191.4 -4.7L190.8 -0.7L187.5 2.8L187.8 4.1"/><path class="m-road" d="M174.0 17.7L179.7 16.0L176.6 18.4L181.5 15.5L178.0 17.9L176.3 20.6L178.0 27.3L176.4 27.6L178.4 28.1L174.6 29.3L174.5 27.1L172.8 26.6L171.0 22.7"/><path class="m-road" d="M-10.6 20.8L-16.5 16.6L-24.6 16.0"/><path class="m-road" d="M-25.5 16.1L-14.3 15.4L-6.2 20.0L-11.3 16.7L-14.8 12.7L-24.1 11.0"/><path class="m-road" d="M-24.1 8.4L-14.5 10.5L-24.1 7.4"/><path class="m-road" d="M-24.8 6.6L-22.6 6.2L-13.1 8.8L-11.4 11.1L-5.1 13.3L-3.6 15.7L-1.8 15.6L2.6 14.1L3.4 12.1L7.4 9.3L11.9 9.4L14.2 7.3L12.8 4.3L16.0 -3.3L16.4 -1.6L16.2 -3.8"/><path class="m-road" d="M72.9 49.5L73.4 59.8L70.5 67.6L74.0 71.3L73.9 78.2L75.0 79.4L74.0 77.4L74.9 72.8L73.7 69.0L71.7 67.5L72.8 64.0L72.3 67.4L74.6 69.7L76.1 73.3L76.6 83.2L78.8 82.6L81.4 85.0L85.5 83.9L87.2 89.2L86.4 89.9L86.9 92.2L90.4 96.7L95.5 100.7L100.5 108.0L105.1 112.0L106.4 111.7L110.9 116.8L115.6 116.2L118.1 121.5L127.5 126.9L132.1 126.9L135.3 128.2L137.8 131.3L145.5 132.9L147.2 133.1L148.8 131.5L156.7 133.1L158.5 131.5L159.0 133.1"/><path class="m-road" d="M23.1 11.7L22.9 8.0L22.4 9.7L22.0 8.7L23.2 6.6L21.0 5.7L21.0 4.5L21.7 6.7L20.5 6.1L20.2 1.7L19.2 0.8L19.8 6.3L21.2 7.4L19.6 6.7L18.3 2.5L18.2 3.8L17.4 2.9L18.0 -3.2L16.9 -4.4L17.8 -8.6L17.0 -10.3"/><path class="m-road" d="M166.8 139.4L166.3 139.0"/><path class="m-road" d="M184.6 139.9L185.5 137.8"/><path class="m-road" d="M185.1 137.5L180.7 137.1L178.5 139.4L173.3 141.4L170.6 141.3L170.2 139.8L169.2 140.8L167.2 140.4L166.8 139.4"/><path class="m-road" d="M185.5 137.8L185.1 137.5"/><path class="m-road" d="M71.8 49.9L72.2 49.8"/><path class="m-road" d="M71.8 49.9L71.8 51.1"/><path class="m-road" d="M66.0 41.0L69.7 45.1L71.8 49.9"/><path class="m-road m-road-major" d="M152.5 -4.5L154.6 -5.6L154.9 -9.5L155.9 -5.7L156.1 -8.7L160.2 -8.9L161.8 -11.1L161.6 -8.8L163.4 -11.1L162.5 -7.4L165.2 -10.8L165.3 -9.6L166.3 -11.0L166.0 -10.1L167.5 -9.4L169.1 -11.2L170.1 -10.3L171.2 -14.8L171.0 -13.3L171.7 -14.7L173.0 -10.5L175.8 -7.8L172.3 -3.3L177.6 -5.9L178.7 -8.1L178.5 -12.3L176.3 -15.1"/><path class="m-road" d="M17.0 -10.3L17.6 -8.2L16.2 -3.8"/><path class="m-road" d="M157.8 -24.2L157.5 -20.7L151.0 -8.0L151.8 -5.8L148.9 -3.3L149.6 1.1L148.3 2.7L148.8 5.3"/><path class="m-road" d="M187.8 4.1L187.8 4.3"/><path class="m-road" d="M187.8 4.3L183.2 13.7L175.5 17.0"/><path class="m-track" d="M129.6 22.0L123.4 24.4L118.7 24.4L117.5 29.8L115.8 29.6L110.2 33.4L109.2 33.5L102.6 26.8L100.8 30.0L100.0 29.3L98.0 30.5L96.7 29.0L93.2 31.1L92.7 33.5L91.1 30.4L87.3 28.5L83.8 30.6L80.3 28.0L82.0 30.7L81.1 30.7L75.8 26.8L75.1 22.5L78.0 15.8L74.3 9.3"/><path class="m-track" d="M311.3 218.3L310.4 215.1"/><path class="m-track" d="M102.0 43.7L93.2 44.9L87.2 47.0L79.9 45.5L74.4 46.3"/><path class="m-track" d="M179.4 -11.0L181.7 -6.8L181.3 -5.0L177.2 -2.5L175.0 0.3L175.1 -0.7L174.5 -0.1L173.1 -1.6L173.5 -3.0L172.0 -1.6L172.2 -3.3"/><path class="m-track" d="M29.8 16.1L39.8 21.7L56.5 27.6L58.6 31.8L65.5 40.5"/><path class="m-track" d="M181.5 15.5L189.9 9.5L191.5 5.5L195.7 4.4"/><path class="m-track" d="M99.3 50.6L105.2 53.1L106.3 52.5L102.7 50.6L105.6 51.7L110.4 51.2L109.1 50.5L111.4 50.4L109.2 50.0L112.0 50.2L104.0 48.6L100.2 45.8L104.8 47.6L100.8 44.8L104.8 46.4L111.8 46.2"/><path class="m-track" d="M72.0 66.4L74.0 62.7L74.2 64.3L77.6 59.3L78.8 53.4L78.0 50.1L79.7 53.7L79.7 58.3L77.7 61.8L77.3 69.1L79.4 62.9L79.0 70.8L82.0 58.6"/><path class="m-track" d="M369.9 244.5L376.0 246.5"/><path class="m-track" d="M365.9 245.9L370.7 246.5"/><path class="m-track" d="M376.0 246.5L384.4 246.7"/><path class="m-track" d="M38.7 22.1L39.8 23.3L38.2 23.1L31.6 26.7L31.5 25.4L30.0 26.4L24.0 22.2L20.7 21.7L20.2 20.5"/><path class="m-track" d="M47.2 24.0L37.4 21.7L34.0 23.4L30.9 21.5"/><path class="m-track" d="M24.9 1.5L22.2 -0.9L22.4 -3.2L19.8 -5.7L19.9 -8.4L17.5 -12.5"/><path class="m-track" d="M16.1 -3.3L15.5 -5.3L16.6 -7.7L14.9 -10.2L15.8 -13.9L19.5 -15.1L20.4 -16.6L20.7 -18.2L20.0 -16.6L20.2 -18.7L18.9 -20.3"/><path class="m-track" d="M74.3 9.3L71.8 9.2L70.3 7.7"/><path class="m-track" d="M272.1 194.7L271.9 191.4"/><path class="m-track" d="M272.1 194.7L274.0 200.3L275.9 200.7L285.6 208.2"/><path class="m-track" d="M271.9 191.4L272.4 191.1"/><path class="m-track" d="M272.4 191.1L275.1 192.5"/><path class="m-track" d="M214.6 166.9L216.6 165.3"/><path class="m-track" d="M169.0 147.0L168.3 147.9L169.6 149.8L169.5 152.4"/><path class="m-track" d="M169.3 146.6L169.0 147.0"/><path class="m-track" d="M175.8 -6.7L175.8 -6.7"/><path class="m-track" d="M175.7 -6.7L175.2 -6.3"/><path class="m-track" d="M170.3 140.0L168.9 141.7L169.6 144.2L171.3 144.0L174.8 146.2L184.5 147.3L188.2 150.7L192.5 152.3L197.0 155.9L203.9 156.3L202.1 155.3"/><path class="m-track" d="M169.0 142.0L168.6 142.6"/><path class="m-track" d="M167.4 142.8L168.4 140.2"/><path class="m-track" d="M168.3 144.7L167.5 144.4L168.4 144.1"/><path class="m-track" d="M170.5 144.1L168.4 144.1"/><path class="m-track" d="M166.7 143.0L164.3 141.3"/><path class="m-track" d="M168.4 144.1L168.6 142.6"/><path class="m-track" d="M168.5 144.3L169.3 146.6"/><path class="m-track" d="M171.8 144.6L170.8 145.5L168.5 144.3"/><path class="m-track" d="M164.9 142.0L167.6 144.2"/><path class="m-track" d="M168.6 142.6L168.2 143.2"/><path class="m-track" d="M168.4 144.1L168.5 144.3"/><path class="m-track" d="M217.1 164.7L224.0 166.6L221.0 164.0L219.5 164.8L221.6 163.6L223.4 164.5L222.0 163.2L219.8 163.9L215.5 161.7"/><path class="m-track" d="M219.4 168.6L218.5 167.7"/><path class="m-track" d="M217.7 164.4L215.4 161.7"/><path class="m-track" d="M219.1 168.7L220.4 167.9"/><path class="m-track" d="M220.7 167.9L221.2 166.0"/><path class="m-track" d="M165.3 138.0L166.9 136.7L164.1 131.1L162.5 131.1L161.7 133.2L159.3 133.1"/><path class="m-track" d="M205.0 159.6L209.8 160.8L212.2 160.4L211.8 159.5"/><path class="m-track" d="M197.4 156.0L198.9 157.8L203.3 159.1"/><path class="m-track" d="M211.8 159.5L210.7 158.2L212.5 158.7L210.5 157.3"/><path class="m-track" d="M65.5 40.5L66.0 40.7"/><path class="m-track" d="M65.5 40.5L66.0 41.0"/><path class="m-track" d="M152.5 -4.5L148.8 2.9L148.8 5.3"/><path class="m-track" d="M-6.2 28.1L-14.0 21.2L-25.5 20.5"/><path class="m-track" d="M78.2 84.9L78.7 84.3"/><path class="m-track" d="M55.9 63.2L61.6 56.7L61.5 55.2L62.1 56.4L60.1 61.0L63.3 57.9L61.2 62.1L65.0 59.0L65.8 55.3L66.2 58.5L67.2 54.9L66.6 60.8L68.9 56.2L68.9 53.8L69.5 56.1L68.7 60.5L70.0 56.9L69.6 60.7L71.0 57.5L70.3 62.2L72.0 57.7L71.8 51.1"/><path class="m-track" d="M54.2 16.3L54.6 15.5L57.1 15.9L57.7 14.0L62.2 15.2L63.0 12.5L65.6 13.3L70.3 7.7"/><path class="m-track" d="M369.9 244.5L371.5 243.3L378.0 244.5L384.0 243.5L385.2 244.7L384.7 246.1L393.4 249.5"/><path class="m-track" d="M393.4 249.5L393.5 249.5"/><path class="m-track" d="M74.3 9.3L74.5 12.8"/><path class="m-track" d="M393.5 249.5L396.9 250.0L400.8 248.5L408.4 250.3L411.3 253.0L420.8 252.2L431.1 257.6L435.2 258.3L441.6 263.0"/><path class="m-track" d="M71.0 75.2L70.8 74.8"/><path class="m-track" d="M78.2 84.9L78.9 85.9L75.7 84.5L73.8 85.3L74.2 82.7L71.0 75.2"/><path class="m-track" d="M66.8 76.8L66.1 74.2L65.8 75.4L65.1 74.3L64.7 76.9L64.3 75.2"/><path class="m-track" d="M76.8 84.9L82.9 88.9L85.2 95.8"/><path class="m-track" d="M85.2 95.8L91.3 100.1L94.3 105.3L102.4 113.7L103.9 117.6L102.1 114.3L96.6 110.3"/><path class="m-track" d="M64.3 75.2L63.5 76.8L66.3 80.7L65.1 83.3"/><path class="m-track" d="M70.8 74.8L69.8 72.2L69.7 75.0L68.4 71.3L68.9 74.5L67.6 71.8L68.0 74.9L66.4 72.4L66.8 76.8"/><path class="m-track" d="M22.9 0.1L23.0 -3.4L21.2 -6.1L20.9 -9.9L24.0 -4.9"/><path class="m-track" d="M120.1 24.3L120.7 26.8L121.3 25.7L122.2 26.5"/><path class="m-track" d="M149.4 11.6L148.3 12.1L147.8 9.6L143.6 2.8L143.5 4.2L141.5 -2.6L142.1 -14.3L139.4 -11.8L139.4 -12.8L138.4 -12.1L138.5 -16.3L137.0 -14.9L133.9 -15.4L132.9 -12.2L131.5 -12.6L130.5 -5.8"/><path class="m-track" d="M26.7 -9.3L25.6 -13.7L25.0 -10.9L26.8 -7.1"/><path class="m-track" d="M26.8 -7.1L28.2 -4.9L31.5 -3.6"/><path class="m-track" d="M31.8 -2.3L31.3 1.3L30.6 -2.4"/><path class="m-track" d="M28.5 -3.0L27.3 -3.1"/><path class="m-track" d="M23.6 -7.0L24.4 -5.1L23.3 -6.0"/><path class="m-track" d="M24.2 -6.6L23.6 -7.0"/><path class="m-track" d="M25.2 -5.4L24.2 -6.6"/><path class="m-track" d="M25.9 -4.3L25.2 -5.4"/><path class="m-track" d="M26.5 -3.5L25.9 -4.3"/><path class="m-track" d="M27.3 -3.1L26.5 -3.5"/><path class="m-track" d="M31.5 -3.5L31.8 -2.3"/><path class="m-track" d="M31.5 -3.6L31.5 -3.5"/><path class="m-track" d="M30.5 -2.5L28.5 -3.0"/><path class="m-track" d="M30.6 -2.4L30.5 -2.5"/><path class="m-route-casing" d="M101.7 43.5L105.8 45.5L117.2 45.9L127.3 39.2L135.7 31.7L143.6 29.6L153.9 21.8L161.4 20.9L168.2 18.7L173.0 18.8"/><path class="m-route-casing" d="M177.3 15.6L177.6 14.5"/><path class="m-route-casing" d="M101.7 43.5L101.8 42.6"/><path class="m-route-casing" d="M177.6 14.5L182.6 10.6L185.7 1.2L187.9 -0.1L189.4 -3.9L185.5 -15.3L185.3 -25.0"/><path class="m-route-casing" d="M-24.5 18.4L-16.8 17.2L-8.9 21.4L0.3 22.2L4.2 21.5L7.0 18.5L10.2 17.4"/><path class="m-route-casing" d="M72.2 49.8L72.9 49.5"/><path class="m-route-casing" d="M166.3 139.0L165.6 139.3L165.3 137.9L163.8 138.6L163.8 136.6L162.6 136.6L162.9 135.2L161.7 135.5L161.9 134.0L159.0 133.1"/><path class="m-route-casing" d="M243.6 167.6L247.5 170.6L248.0 173.2L261.0 176.0L265.4 178.5L264.8 183.7L267.4 184.0L266.6 185.6L268.6 185.7L271.2 187.6L284.8 204.7L289.7 206.6L296.3 212.6L302.3 213.1L303.9 215.3L307.6 216.8L310.6 215.1L313.5 216.4L317.1 220.2L322.8 223.4L324.6 228.2L325.5 228.7L325.9 227.7"/><path class="m-route-casing" d="M67.0 39.8L71.7 43.7L75.4 45.0L79.4 44.0L89.2 44.9L97.3 42.2L101.2 41.8L101.8 42.6"/><path class="m-route-casing" d="M23.7 11.7L29.4 13.1L41.4 20.1L56.4 25.4"/><path class="m-route-casing" d="M23.2 11.7L23.7 11.7"/><path class="m-route-casing" d="M173.5 18.4L177.3 15.6"/><path class="m-route-casing" d="M173.0 18.8L173.5 18.4"/><path class="m-route-casing" d="M10.2 17.4L12.9 15.3L17.2 14.4L19.4 12.3L23.2 11.7"/><path class="m-route-casing" d="M56.4 25.4L56.5 25.4"/><path class="m-route-casing" d="M56.5 25.4L58.0 26.4"/><path class="m-route-casing" d="M58.0 26.4L67.0 39.8"/><path class="m-route-casing" d="M326.2 228.1L330.7 231.9L334.6 239.0L341.0 242.9L351.1 245.7L357.3 241.7L366.2 246.1L369.9 244.5"/><path class="m-route-casing" d="M325.9 227.7L326.2 228.1"/><path class="m-route-casing" d="M243.2 167.4L243.6 167.6"/><path class="m-route-casing" d="M207.8 154.8L211.4 155.0L210.3 157.2L212.9 158.2L215.5 161.7L219.7 163.1L223.1 162.3L224.5 163.1L224.3 165.3L226.3 164.8L230.7 166.4L231.2 167.7L233.7 167.9L233.8 169.0L236.6 170.5L239.8 170.3L243.2 167.4"/><path class="m-route-casing" d="M207.4 154.6L207.8 154.8"/><path class="m-route-casing" d="M184.6 139.9L184.8 141.2L189.2 142.7L195.5 149.1L198.5 154.9L204.2 155.6L207.4 154.6"/><path class="m-route" d="M101.7 43.5L105.8 45.5L117.2 45.9L127.3 39.2L135.7 31.7L143.6 29.6L153.9 21.8L161.4 20.9L168.2 18.7L173.0 18.8"/><path class="m-route" d="M177.3 15.6L177.6 14.5"/><path class="m-route" d="M101.7 43.5L101.8 42.6"/><path class="m-route" d="M177.6 14.5L182.6 10.6L185.7 1.2L187.9 -0.1L189.4 -3.9L185.5 -15.3L185.3 -25.0"/><path class="m-route" d="M-24.5 18.4L-16.8 17.2L-8.9 21.4L0.3 22.2L4.2 21.5L7.0 18.5L10.2 17.4"/><path class="m-route" d="M72.2 49.8L72.9 49.5"/><path class="m-route" d="M166.3 139.0L165.6 139.3L165.3 137.9L163.8 138.6L163.8 136.6L162.6 136.6L162.9 135.2L161.7 135.5L161.9 134.0L159.0 133.1"/><path class="m-route" d="M243.6 167.6L247.5 170.6L248.0 173.2L261.0 176.0L265.4 178.5L264.8 183.7L267.4 184.0L266.6 185.6L268.6 185.7L271.2 187.6L284.8 204.7L289.7 206.6L296.3 212.6L302.3 213.1L303.9 215.3L307.6 216.8L310.6 215.1L313.5 216.4L317.1 220.2L322.8 223.4L324.6 228.2L325.5 228.7L325.9 227.7"/><path class="m-route" d="M67.0 39.8L71.7 43.7L75.4 45.0L79.4 44.0L89.2 44.9L97.3 42.2L101.2 41.8L101.8 42.6"/><path class="m-route" d="M23.7 11.7L29.4 13.1L41.4 20.1L56.4 25.4"/><path class="m-route" d="M23.2 11.7L23.7 11.7"/><path class="m-route" d="M173.5 18.4L177.3 15.6"/><path class="m-route" d="M173.0 18.8L173.5 18.4"/><path class="m-route" d="M10.2 17.4L12.9 15.3L17.2 14.4L19.4 12.3L23.2 11.7"/><path class="m-route" d="M56.4 25.4L56.5 25.4"/><path class="m-route" d="M56.5 25.4L58.0 26.4"/><path class="m-route" d="M58.0 26.4L67.0 39.8"/><path class="m-route" d="M326.2 228.1L330.7 231.9L334.6 239.0L341.0 242.9L351.1 245.7L357.3 241.7L366.2 246.1L369.9 244.5"/><path class="m-route" d="M325.9 227.7L326.2 228.1"/><path class="m-route" d="M243.2 167.4L243.6 167.6"/><path class="m-route" d="M207.8 154.8L211.4 155.0L210.3 157.2L212.9 158.2L215.5 161.7L219.7 163.1L223.1 162.3L224.5 163.1L224.3 165.3L226.3 164.8L230.7 166.4L231.2 167.7L233.7 167.9L233.8 169.0L236.6 170.5L239.8 170.3L243.2 167.4"/><path class="m-route" d="M207.4 154.6L207.8 154.8"/><path class="m-route" d="M184.6 139.9L184.8 141.2L189.2 142.7L195.5 149.1L198.5 154.9L204.2 155.6L207.4 154.6"/><path class="m-route" style="stroke-width:3" d="M363.4 240.7L373.8 246.7"/><path class="m-walk" d="M376.3 250.1L411.3 279.1" marker-end="url(#map-ch04-ah)"/></g><circle class="m-stop" cx="72.6" cy="49.6" r="4.2"/><circle class="m-stop" cx="167.7" cy="142.4" r="4.2"/><path class="m-book" d="M161.7 126.8C159.7 124.8 156.7 124.8 155.7 125.8V133.8C156.7 132.8 159.7 132.8 161.7 134.8C163.7 132.8 166.7 132.8 167.7 133.8V125.8C166.7 124.8 163.7 124.8 161.7 126.8ZM161.7 126.8V134.8"/><circle class="m-stop" cx="213.2" cy="167.2" r="4.2"/><circle class="m-stop" cx="272.7" cy="188.3" r="4.2"/><circle class="m-night" cx="368.6" cy="243.7" r="8"/><text class="m-night-num" x="368.6" y="247.6" style="stroke:none">2</text><path d="M406 26L411 12L416 26L411 22Z" fill="var(--map-label,#201f1d)"/><text class="m-small" x="411" y="38" text-anchor="middle">N</text><text class="m-label m-label-night" x="368.6" y="229.7" text-anchor="middle">Chitkul</text><text class="m-label-note" x="361.6" y="258.9" text-anchor="end">road ends</text><text class="m-label-note" x="406.3" y="274.1" text-anchor="end">footpath to Lamkhaga La</text><text class="m-label-note" x="213.0" y="24.6" text-anchor="start">Kinner Kailash massif to the north</text><text class="m-label" x="63.6" y="54.4" text-anchor="end">Karcham</text><text class="m-label" x="167.7" y="161.3" text-anchor="middle">Sangla</text><text class="m-label-minor" x="161.7" y="117.8" text-anchor="middle">Kamru</text><text class="m-label-minor" x="213.2" y="184.6" text-anchor="middle">Batseri</text><text class="m-label-minor" x="272.7" y="178.3" text-anchor="middle">Rakcham</text><text class="m-label-water" x="113.8" y="168.2" text-anchor="start">Baspa</text><rect x="0" y="287.1" width="420" height="48.0" fill="var(--map-halo,#f3f2f2)"/><path d="M0 287.1H420" stroke="var(--divider,#d8d3cc)" stroke-width="1"/><circle class="m-night" cx="16.0" cy="304.1" r="6.5"/><text class="m-night-num" style="font-size:9px;stroke:none" x="16.0" y="308.0" style="stroke:none">1</text><text class="m-small" x="28" y="307.9" style="stroke:none">night halt</text><circle class="m-stop" cx="113.0" cy="304.1" r="4.2"/><text class="m-small" x="125.0" y="307.9" style="stroke:none">daytime stop</text><path class="m-book" d="M222.2 301.1C220.2 299.1 217.2 299.1 216.2 300.1V308.1C217.2 307.1 220.2 307.1 222.2 309.1C224.2 307.1 227.2 307.1 228.2 308.1V300.1C227.2 299.1 224.2 299.1 222.2 301.1ZM222.2 301.1V309.1"/><text class="m-small" x="234.2" y="307.9" style="stroke:none">the text sends you here</text><path d="M10 323.1h61.4" stroke="var(--map-label,#201f1d)" stroke-width="2"/><path d="M10 319.1v8M71.4 319.1v8" stroke="var(--map-label,#201f1d)" stroke-width="1.2"/><text class="m-small" x="76.4" y="327.1" style="stroke:none">5 km</text><text class="m-small" x="414" y="327.1" text-anchor="end" style="stroke:none">© OpenStreetMap contributors</text></svg>