<svg xmlns="http://www.w3.org/2000/svg" viewBox="0 0 534.1 619.0" role="img"><defs><marker id="arrow" viewBox="0 0 10 10" refX="8" refY="5" markerWidth="6" markerHeight="6" orient="auto-start-reverse"><path d="M2 1L8 5L2 9" fill="none" stroke="context-stroke" stroke-width="1.5" stroke-linecap="round" stroke-linejoin="round"/></marker></defs><style>text{paint-order:stroke fill;stroke:rgba(255,255,255,.9)!important;stroke-width:3.5px!important;stroke-linejoin:round!important}.casing{fill:none;stroke:#fff;stroke-opacity:.85;stroke-width:6.5px;stroke-linecap:round;stroke-linejoin:round}.boundary{fill:none;stroke:#6b5a45;stroke-width:1.8;stroke-dasharray:7 3 1.5 3;opacity:.85}.note{font:italic 600 11.5px Georgia,serif;fill:#4a4036;letter-spacing:.04em}.panel-h{font:600 11px Georgia,serif;fill:#6b6661;letter-spacing:.12em;text-transform:uppercase}.panel-t{font:13px system-ui,sans-serif;fill:#201f1d;stroke:none!important}</style><path class="boundary" d="M492.8 173.4L491.8 173.0L491.1 172.8L489.9 172.8L489.2 172.5L489.0 172.8L488.4 173.7L488.7 174.2L488.8 174.9L489.0 176.5L488.6 177.6L487.7 178.8L486.5 178.5L483.2 177.6L482.0 179.3L482.0 181.0L481.1 181.9L479.8 182.5L477.5 182.4L476.3 180.9L475.8 180.4L475.4 180.0L475.0 180.1L474.1 180.9L473.8 181.8L473.1 183.5L472.4 184.6L472.2 185.1L470.8 186.0L469.7 186.3L468.5 186.2L468.3 185.7L468.5 184.9L468.8 183.9L468.4 183.1L468.1 182.2L467.5 181.2L467.1 180.8L466.0 180.2L465.0 179.9L464.2 179.8L463.8 180.0L463.0 180.6L462.6 181.8L462.3 181.8L461.9 181.8L461.5 181.5L461.0 181.2L460.6 181.1L459.8 181.5L459.3 181.8L458.2 182.2L457.2 182.6L456.6 182.9L456.1 182.7L455.7 182.3L454.8 182.3L452.2 182.4L451.2 181.5L451.3 181.9L449.7 182.7L448.7 182.8L447.1 183.9L446.2 183.3L444.5 183.7L442.1 186.2L441.3 186.7L440.4 186.7L439.7 186.2L439.0 186.9L438.4 187.1L437.3 186.6L435.9 185.2L434.5 185.2L432.7 185.5L432.1 186.4L431.5 186.9L431.0 186.4L431.1 185.7L431.0 185.0L429.9 185.0L428.8 184.6L428.7 183.9L428.6 183.5L427.3 183.1L426.8 182.8L426.2 182.3L425.3 182.5L424.0 182.2L423.0 181.9L422.3 182.2L421.3 182.6L421.1 183.5L421.4 184.0L421.6 184.7L421.1 185.0L421.1 185.5L420.6 186.0L419.6 188.6L419.8 190.0L419.9 190.4L419.3 192.1L419.4 193.3L419.0 193.7L418.3 195.1L417.5 196.9L417.7 198.9L417.7 200.0L418.4 202.6L418.7 205.3L418.3 207.9L418.2 209.6L417.5 210.7L416.2 211.5L416.3 212.8L417.4 214.3L419.4 214.7L419.9 215.5L423.0 217.6L424.2 218.8L423.2 219.6L423.1 220.9L422.6 221.7L422.8 222.6L423.5 223.8"/><path class="boundary" d="M423.5 223.8L423.4 224.9L423.1 225.9L421.7 226.2L420.2 226.5L419.1 226.1L417.7 226.2L416.5 226.9L415.4 226.3L414.3 225.9L413.4 226.0L412.5 226.6L411.2 225.4L409.7 223.9L409.3 223.2L409.1 222.3L408.2 221.7L405.8 220.0L404.4 220.4L402.9 220.0L399.8 219.2L397.6 218.4L395.7 218.1L396.0 219.2L395.8 220.1L395.0 221.7L393.7 222.8L392.7 224.3L390.3 225.7L389.0 227.5L384.8 226.7L382.0 226.6L379.7 225.6L377.9 226.0L377.2 227.4L376.8 230.3L372.7 229.6L370.5 228.4L363.9 226.5L360.3 226.4L356.9 227.4L354.1 227.7L350.4 226.9L346.9 227.7L346.4 228.7L345.0 229.6L344.6 230.3L344.7 232.6L343.0 233.3L341.0 233.6L342.0 236.7L342.1 238.8L341.3 240.7L341.3 243.5L342.0 246.8L342.1 248.9L340.3 250.5L338.5 251.6L336.6 252.5"/><path class="boundary" d="M336.6 252.5L334.5 253.3L333.2 252.5L331.7 251.7L328.7 251.2L325.2 250.8L322.8 250.6L322.0 252.1L319.0 253.6L316.7 253.9L314.7 253.8L313.7 254.8L314.3 256.2L312.3 257.4L313.4 259.2L314.4 260.7L315.2 261.5L315.0 263.1L314.2 266.9L313.0 270.0L306.9 277.3L309.5 280.4"/><path class="boundary" d="M309.5 280.4L309.5 280.5L309.4 280.5L309.2 280.6L309.1 280.7L308.9 280.8L308.6 280.8L308.3 280.8L308.0 280.8L307.7 280.8L307.6 280.8L307.4 280.8L307.2 280.8L306.9 280.8L306.7 280.7L306.6 280.8L306.5 280.8L306.2 280.9L306.0 280.9L305.9 280.9L305.6 280.9L305.3 280.9L305.2 280.9L304.9 280.9L304.6 280.9L304.3 280.9L304.0 280.8L303.9 280.8L303.8 280.9L303.6 281.0L303.6 281.4L303.5 281.8L303.4 282.0L303.2 282.3L303.0 282.5L302.9 282.7L302.8 282.7L302.3 282.7L302.1 282.7L302.0 282.7L301.8 282.8L301.7 283.0L301.6 283.0L301.6 283.4L301.6 283.7L301.5 283.9L301.3 284.2L300.8 284.6L300.4 284.9L300.2 285.1L300.1 285.2L299.9 285.4L299.8 285.5L299.8 285.7L299.7 285.9L299.5 286.1L299.4 286.4L299.3 286.6L299.2 286.7L299.2 286.9L299.1 287.1L299.0 287.2L298.9 287.4L298.9 287.5L298.8 287.7L298.8 287.9L298.7 288.1L298.6 288.2L298.6 288.2L298.5 288.3L298.4 288.3L298.2 288.3L298.0 288.3L297.9 288.3L297.7 288.3L297.6 288.4L297.4 288.6L297.4 288.6L297.2 288.7L297.0 288.9L296.9 289.0L296.8 289.1L296.6 289.1L296.6 289.1L296.5 289.2L296.3 289.3L296.1 289.4L295.9 289.4L295.7 289.4L295.4 289.4L295.1 289.5L294.9 289.4L294.7 289.3L294.6 289.1L294.5 289.1L294.4 288.9L294.4 288.8L294.3 288.7L294.2 288.6L294.1 288.4L294.0 288.3L293.9 288.1L293.9 288.0L293.7 287.9L293.6 287.7L293.5 287.5L293.4 287.4L293.3 287.2L293.3 287.2L293.2 287.1L293.1 287.1L293.0 287.2L292.8 287.2L292.7 287.2L292.6 287.1L292.4 287.1L292.2 287.1L292.0 287.0L291.9 287.0L291.8 286.9L291.8 286.8L291.7 286.6L291.7 286.6L291.5 286.5L291.5 286.5L291.4 286.4L291.4 286.2L291.3 285.9L291.3 285.8L291.3 285.6L291.3 285.3L291.3 285.1L291.3 284.9L291.3 284.8L291.3 284.8L291.2 284.7L291.1 284.6L291.0 284.4L290.9 284.3L290.7 284.2L290.6 284.1L290.5 284.0L290.4 284.0L290.2 283.8L290.0 283.7L289.9 283.8L289.8 283.8L289.6 283.9L289.5 284.0L289.4 284.0L289.2 284.1L289.0 284.1L288.9 284.1L288.8 284.2L288.7 284.2L288.6 284.3L288.4 284.4L288.3 284.4L288.2 284.5L288.0 284.6L287.8 284.6L287.7 284.7L287.6 284.7L287.6 284.5L287.5 284.3L287.4 284.2L287.3 284.2L287.3 284.2L287.2 284.0L287.2 283.8L287.1 283.7L287.0 283.5L287.0 283.3L286.9 283.1L286.7 282.7L286.6 282.4L286.5 282.2L286.4 281.8L286.4 281.8L286.0 281.5L285.7 281.5L285.6 281.4L285.4 281.4L284.8 281.6L284.2 281.9L283.8 282.1L283.7 282.0L283.6 281.7L283.5 281.6L283.4 281.6L283.3 281.3L283.2 281.2L283.2 281.2L283.0 281.1L282.8 281.0L282.4 281.0L282.1 281.2L282.1 281.2L281.8 281.3L281.6 281.4L280.3 281.3L280.0 281.3L279.7 281.0L279.6 280.9L279.0 281.0L278.8 281.2L278.8 281.2L278.5 281.3L278.5 281.3L278.3 281.4L278.1 281.4L277.9 281.5L277.6 281.4L277.4 281.2L277.2 281.1L277.1 280.9L276.9 280.8L276.7 280.7L276.3 280.7L275.7 280.7L274.8 280.6L274.4 280.5L273.7 280.0L273.3 279.7L272.9 279.3L272.7 279.1L272.4 279.0L272.1 279.1L271.6 279.3L271.1 279.8L270.8 280.2L270.7 280.5L270.7 281.0L270.8 281.3L270.8 281.6L270.8 281.8L270.8 282.1L270.6 282.6L270.4 282.8L270.4 283.3L270.6 284.2L270.5 284.6L270.5 284.6L270.4 285.5L270.4 285.5L270.3 285.6L270.4 286.0L270.4 286.0L270.4 286.1L270.6 286.7L270.6 286.7L270.6 287.1L270.8 287.6L270.7 287.7L270.3 288.2L270.3 288.2L270.0 288.4L270.0 288.4L269.5 289.0L269.5 289.0L269.2 289.2L269.2 289.2L268.9 289.5L268.8 289.6L268.7 289.8L268.6 290.0L268.8 290.2L268.8 290.3L268.9 290.4L269.0 290.7L269.1 290.9L269.1 291.0L269.1 291.2L269.0 291.3L268.8 291.6L268.8 291.6L268.3 292.2L268.3 292.2L268.2 292.2L267.7 292.7L267.7 292.7L267.6 292.8L267.5 292.9L267.0 292.8L266.8 292.8L266.4 292.8L265.9 292.7L265.5 292.8L265.0 292.7L264.8 292.7L264.7 292.9L264.4 293.0L264.2 293.0L264.0 292.9L263.7 292.7L263.6 292.7L263.4 292.7L263.3 292.7L263.3 292.7L263.3 292.7L263.2 292.6L263.1 292.5L262.9 292.2L262.8 292.2L262.8 292.2L262.3 291.9L262.0 291.6L261.6 291.4L261.4 291.4L261.1 291.3L260.8 291.4L260.4 291.4L259.9 291.7L259.6 292.0L259.4 292.0L259.3 291.9L259.1 291.8L258.8 291.6L258.8 291.6L258.7 291.6L258.7 291.6L258.7 291.6L258.2 291.4L257.9 291.4L257.6 291.4L257.5 291.3L257.5 291.3L257.3 291.2L257.0 291.1L257.0 291.1L256.6 290.9L256.5 290.8L256.3 290.4L256.3 290.3L256.2 290.2L256.1 289.9L256.0 289.6L256.2 289.1L256.2 288.8L256.2 288.7L256.0 288.4L255.7 288.1L255.5 287.9L255.2 287.9L255.0 287.9L254.9 287.9L254.8 287.8L254.6 287.6L254.5 287.4L254.3 287.2L254.2 287.2L253.8 287.0L253.7 286.9L253.3 286.7L252.9 286.3L252.6 286.0L252.3 285.8L252.1 285.7L251.8 285.6L251.5 285.3L251.3 285.0L251.2 285.0L251.2 284.9L250.7 284.5L250.7 284.5L250.5 284.3L250.2 284.1L249.7 283.9L248.8 283.3L248.4 283.1L248.0 282.7L247.8 282.3L247.8 282.2L247.8 282.2L247.6 281.8L247.5 281.6L247.5 281.3L247.4 281.0L247.3 280.8L247.2 280.6"/><path class="casing" d="M38.7 518.9 L79.8 493.1 L125.3 468.5 L153.3 431.9 L176.0 398.4 L201.8 379.9 L224.7 376.1 L256.9 378.7 L285.1 388.1 L317.2 392.0 L341.1 388.2"/><path class="casing" d="M341.1 388.2 L360.3 401.9 L368.4 408.7 L387.5 417.0 L417.7 432.3"/><path class="casing" d="M341.1 388.2 L349.0 378.4 L356.9 372.5 L363.8 367.5"/><path class="casing" d="M363.8 367.5 L386.8 356.2 L416.7 337.6 L446.6 315.2 L476.5 296.8 L502.4 280.6 L494.2 266.4 L475.0 245.2 L460.9 226.5 L442.0 203.5 L424.5 188.3 L401.9 170.8"/><path class="casing" d="M401.9 170.8 L376.3 178.3 L351.8 185.6 L330.8 188.8"/><path class="casing" d="M330.8 188.8 L316.3 199.6 L304.9 210.5 L296.1 218.2"/><path class="casing" d="M330.8 188.8 L325.3 169.5 L315.3 147.9 L307.9 123.2"/><path class="casing" d="M307.9 123.2 L284.0 107.8 L260.7 87.4 L235.7 66.6 L212.2 48.9"/><path class="casing" d="M212.2 48.9 L199.8 52.4 L190.7 58.6 L178.0 63.4"/><path class="casing" d="M178.0 63.4 L167.2 73.9 L156.4 80.6 L129.6 65.1 L111.1 52.0 L92.8 44.0 L72.8 47.2 L51.0 55.3 L47.5 77.5 L45.1 99.6 L43.4 117.7"/><path class="casing" d="M178.0 63.4 L173.0 51.4 L171.7 32.4"/><rect x="8" y="573.0" width="518.1" height="38" rx="8" fill="#f3f2f2" fill-opacity=".92"/>

<path fill="none" stroke="#378ADD" stroke-width="2.5" stroke-linecap="round" stroke-linejoin="round" d="M38.7 518.9 L79.8 493.1 L125.3 468.5 L153.3 431.9 L176.0 398.4 L201.8 379.9 L224.7 376.1 L256.9 378.7 L285.1 388.1 L317.2 392.0 L341.1 388.2" style="fill:none;stroke:rgb(55, 138, 221);color:rgb(11, 11, 11);stroke-width:2.5px;stroke-linecap:round;stroke-linejoin:round;opacity:1;font-family:anthropic-sans, -apple-system, BlinkMacSystemFont, &quot;Segoe UI&quot;, sans-serif;font-size:16px;font-weight:400;text-anchor:start;dominant-baseline:auto"/>
<path fill="none" stroke="#378ADD" stroke-width="2.5" stroke-linecap="round" stroke-linejoin="round" d="M341.1 388.2 L360.3 401.9 L368.4 408.7 L387.5 417.0 L417.7 432.3" style="fill:none;stroke:rgb(55, 138, 221);color:rgb(11, 11, 11);stroke-width:2.5px;stroke-linecap:round;stroke-linejoin:round;opacity:1;font-family:anthropic-sans, -apple-system, BlinkMacSystemFont, &quot;Segoe UI&quot;, sans-serif;font-size:16px;font-weight:400;text-anchor:start;dominant-baseline:auto"/>
<path fill="none" stroke="#378ADD" stroke-width="2.5" stroke-linecap="round" stroke-linejoin="round" d="M341.1 388.2 L349.0 378.4 L356.9 372.5 L363.8 367.5" style="fill:none;stroke:rgb(55, 138, 221);color:rgb(11, 11, 11);stroke-width:2.5px;stroke-linecap:round;stroke-linejoin:round;opacity:1;font-family:anthropic-sans, -apple-system, BlinkMacSystemFont, &quot;Segoe UI&quot;, sans-serif;font-size:16px;font-weight:400;text-anchor:start;dominant-baseline:auto"/>
<path fill="none" stroke="#378ADD" stroke-width="2.5" stroke-linecap="round" stroke-linejoin="round" d="M363.8 367.5 L386.8 356.2 L416.7 337.6 L446.6 315.2 L476.5 296.8 L502.4 280.6 L494.2 266.4 L475.0 245.2 L460.9 226.5 L442.0 203.5 L424.5 188.3 L401.9 170.8" style="fill:none;stroke:rgb(55, 138, 221);color:rgb(11, 11, 11);stroke-width:2.5px;stroke-linecap:round;stroke-linejoin:round;opacity:1;font-family:anthropic-sans, -apple-system, BlinkMacSystemFont, &quot;Segoe UI&quot;, sans-serif;font-size:16px;font-weight:400;text-anchor:start;dominant-baseline:auto"/>
<path fill="none" stroke="#378ADD" stroke-width="2.5" stroke-linecap="round" stroke-linejoin="round" d="M401.9 170.8 L376.3 178.3 L351.8 185.6 L330.8 188.8" style="fill:none;stroke:rgb(55, 138, 221);color:rgb(11, 11, 11);stroke-width:2.5px;stroke-linecap:round;stroke-linejoin:round;opacity:1;font-family:anthropic-sans, -apple-system, BlinkMacSystemFont, &quot;Segoe UI&quot;, sans-serif;font-size:16px;font-weight:400;text-anchor:start;dominant-baseline:auto"/>
<path fill="none" stroke="#378ADD" stroke-width="2.5" stroke-linecap="round" stroke-linejoin="round" d="M330.8 188.8 L316.3 199.6 L304.9 210.5 L296.1 218.2" style="fill:none;stroke:rgb(55, 138, 221);color:rgb(11, 11, 11);stroke-width:2.5px;stroke-linecap:round;stroke-linejoin:round;opacity:1;font-family:anthropic-sans, -apple-system, BlinkMacSystemFont, &quot;Segoe UI&quot;, sans-serif;font-size:16px;font-weight:400;text-anchor:start;dominant-baseline:auto"/>
<path fill="none" stroke="#378ADD" stroke-width="2.5" stroke-linecap="round" stroke-linejoin="round" d="M330.8 188.8 L325.3 169.5 L315.3 147.9 L307.9 123.2" style="fill:none;stroke:rgb(55, 138, 221);color:rgb(11, 11, 11);stroke-width:2.5px;stroke-linecap:round;stroke-linejoin:round;opacity:1;font-family:anthropic-sans, -apple-system, BlinkMacSystemFont, &quot;Segoe UI&quot;, sans-serif;font-size:16px;font-weight:400;text-anchor:start;dominant-baseline:auto"/>
<path fill="none" stroke="#378ADD" stroke-width="2.5" stroke-linecap="round" stroke-linejoin="round" d="M307.9 123.2 L284.0 107.8 L260.7 87.4 L235.7 66.6 L212.2 48.9" style="fill:none;stroke:rgb(55, 138, 221);color:rgb(11, 11, 11);stroke-width:2.5px;stroke-linecap:round;stroke-linejoin:round;opacity:1;font-family:anthropic-sans, -apple-system, BlinkMacSystemFont, &quot;Segoe UI&quot;, sans-serif;font-size:16px;font-weight:400;text-anchor:start;dominant-baseline:auto"/>
<path fill="none" stroke="#378ADD" stroke-width="2.5" stroke-linecap="round" stroke-linejoin="round" d="M212.2 48.9 L199.8 52.4 L190.7 58.6 L178.0 63.4" style="fill:none;stroke:rgb(55, 138, 221);color:rgb(11, 11, 11);stroke-width:2.5px;stroke-linecap:round;stroke-linejoin:round;opacity:1;font-family:anthropic-sans, -apple-system, BlinkMacSystemFont, &quot;Segoe UI&quot;, sans-serif;font-size:16px;font-weight:400;text-anchor:start;dominant-baseline:auto"/>
<path fill="none" stroke="#378ADD" stroke-width="2.5" stroke-linecap="round" stroke-linejoin="round" d="M178.0 63.4 L167.2 73.9 L156.4 80.6 L129.6 65.1 L111.1 52.0 L92.8 44.0 L72.8 47.2 L51.0 55.3 L47.5 77.5 L45.1 99.6 L43.4 117.7" style="fill:none;stroke:rgb(55, 138, 221);color:rgb(11, 11, 11);stroke-width:2.5px;stroke-linecap:round;stroke-linejoin:round;opacity:1;font-family:anthropic-sans, -apple-system, BlinkMacSystemFont, &quot;Segoe UI&quot;, sans-serif;font-size:16px;font-weight:400;text-anchor:start;dominant-baseline:auto"/>
<path fill="none" stroke="#378ADD" stroke-width="2" stroke-dasharray="5 4" stroke-linecap="round" d="M178.0 63.4 L173.0 51.4 L171.7 32.4" style="fill:none;stroke:rgb(55, 138, 221);color:rgb(11, 11, 11);stroke-width:2px;stroke-dasharray:5px, 4px;stroke-linecap:round;stroke-linejoin:miter;opacity:1;font-family:anthropic-sans, -apple-system, BlinkMacSystemFont, &quot;Segoe UI&quot;, sans-serif;font-size:16px;font-weight:400;text-anchor:start;dominant-baseline:auto"/>
<path fill="none" stroke="#BA7517" stroke-width="1.5" stroke-dasharray="4 3" stroke-linecap="round" d="M307.9 123.2 L297.8 108.5 L289.0 86.0" style="fill:none;stroke:rgb(186, 117, 23);color:rgb(11, 11, 11);stroke-width:1.5px;stroke-dasharray:4px, 3px;stroke-linecap:round;stroke-linejoin:miter;opacity:1;font-family:anthropic-sans, -apple-system, BlinkMacSystemFont, &quot;Segoe UI&quot;, sans-serif;font-size:16px;font-weight:400;text-anchor:start;dominant-baseline:auto"/>
<path fill="none" stroke="#BA7517" stroke-width="1.5" stroke-dasharray="4 3" stroke-linecap="round" d="M307.9 123.2 L312.2 116.4 L313.0 108.5" style="fill:none;stroke:rgb(186, 117, 23);color:rgb(11, 11, 11);stroke-width:1.5px;stroke-dasharray:4px, 3px;stroke-linecap:round;stroke-linejoin:miter;opacity:1;font-family:anthropic-sans, -apple-system, BlinkMacSystemFont, &quot;Segoe UI&quot;, sans-serif;font-size:16px;font-weight:400;text-anchor:start;dominant-baseline:auto"/>

<path fill="none" stroke="#D85A30" stroke-width="2.5" stroke-linecap="round" marker-end="url(#arrow)" d="M54.6 499.0 Q64.6 477.1 86.9 463.2" style="fill:none;stroke:rgb(216, 90, 48);color:rgb(11, 11, 11);stroke-width:2.5px;stroke-linecap:round;stroke-linejoin:miter;opacity:1;font-family:anthropic-sans, -apple-system, BlinkMacSystemFont, &quot;Segoe UI&quot;, sans-serif;font-size:16px;font-weight:400;text-anchor:start;dominant-baseline:auto"/>
<path fill="none" stroke="#D85A30" stroke-width="2.5" stroke-linecap="round" marker-end="url(#arrow)" d="M444.9 347.3 Q461.7 327.1 478.6 308.9" style="fill:none;stroke:rgb(216, 90, 48);color:rgb(11, 11, 11);stroke-width:2.5px;stroke-linecap:round;stroke-linejoin:miter;opacity:1;font-family:anthropic-sans, -apple-system, BlinkMacSystemFont, &quot;Segoe UI&quot;, sans-serif;font-size:16px;font-weight:400;text-anchor:start;dominant-baseline:auto"/>
<path fill="none" stroke="#D85A30" stroke-width="2.5" stroke-linecap="round" marker-end="url(#arrow)" d="M440.2 254.7 Q421.2 241.1 408.3 225.5" style="fill:none;stroke:rgb(216, 90, 48);color:rgb(11, 11, 11);stroke-width:2.5px;stroke-linecap:round;stroke-linejoin:miter;opacity:1;font-family:anthropic-sans, -apple-system, BlinkMacSystemFont, &quot;Segoe UI&quot;, sans-serif;font-size:16px;font-weight:400;text-anchor:start;dominant-baseline:auto"/>
<path fill="none" stroke="#D85A30" stroke-width="2.5" stroke-linecap="round" marker-end="url(#arrow)" d="M361.6 164.1 Q340.6 146.3 322.9 136.2" style="fill:none;stroke:rgb(216, 90, 48);color:rgb(11, 11, 11);stroke-width:2.5px;stroke-linecap:round;stroke-linejoin:miter;opacity:1;font-family:anthropic-sans, -apple-system, BlinkMacSystemFont, &quot;Segoe UI&quot;, sans-serif;font-size:16px;font-weight:400;text-anchor:start;dominant-baseline:auto"/>
<path fill="none" stroke="#D85A30" stroke-width="2.5" stroke-linecap="round" marker-end="url(#arrow)" d="M271.8 107.7 Q257.0 99.5 243.8 91.2" style="fill:none;stroke:rgb(216, 90, 48);color:rgb(11, 11, 11);stroke-width:2.5px;stroke-linecap:round;stroke-linejoin:miter;opacity:1;font-family:anthropic-sans, -apple-system, BlinkMacSystemFont, &quot;Segoe UI&quot;, sans-serif;font-size:16px;font-weight:400;text-anchor:start;dominant-baseline:auto"/>
<path fill="none" stroke="#D85A30" stroke-width="2.5" stroke-linecap="round" marker-end="url(#arrow)" d="M83.3 81.3 Q67.8 93.5 58.2 107.6" style="fill:none;stroke:rgb(216, 90, 48);color:rgb(11, 11, 11);stroke-width:2.5px;stroke-linecap:round;stroke-linejoin:miter;opacity:1;font-family:anthropic-sans, -apple-system, BlinkMacSystemFont, &quot;Segoe UI&quot;, sans-serif;font-size:16px;font-weight:400;text-anchor:start;dominant-baseline:auto"/>

<g style="fill:rgb(0, 0, 0);stroke:none;color:rgb(11, 11, 11);stroke-width:1px;stroke-linecap:butt;stroke-linejoin:miter;opacity:1;font-family:anthropic-sans, -apple-system, BlinkMacSystemFont, &quot;Segoe UI&quot;, sans-serif;font-size:16px;font-weight:400;text-anchor:start;dominant-baseline:auto"><circle cx="38.7" cy="518.9" r="9" stroke-width="1" style="fill:rgb(241, 239, 232);stroke:rgb(95, 94, 90);color:rgb(11, 11, 11);stroke-width:1px;stroke-linecap:butt;stroke-linejoin:miter;opacity:1;font-family:anthropic-sans, -apple-system, BlinkMacSystemFont, &quot;Segoe UI&quot;, sans-serif;font-size:16px;font-weight:400;text-anchor:start;dominant-baseline:auto"/></g>
<g style="fill:rgb(0, 0, 0);stroke:none;color:rgb(11, 11, 11);stroke-width:1px;stroke-linecap:butt;stroke-linejoin:miter;opacity:1;font-family:anthropic-sans, -apple-system, BlinkMacSystemFont, &quot;Segoe UI&quot;, sans-serif;font-size:16px;font-weight:400;text-anchor:start;dominant-baseline:auto"><circle cx="43.4" cy="117.7" r="9" stroke-width="1" style="fill:rgb(241, 239, 232);stroke:rgb(95, 94, 90);color:rgb(11, 11, 11);stroke-width:1px;stroke-linecap:butt;stroke-linejoin:miter;opacity:1;font-family:anthropic-sans, -apple-system, BlinkMacSystemFont, &quot;Segoe UI&quot;, sans-serif;font-size:16px;font-weight:400;text-anchor:start;dominant-baseline:auto"/></g>
<g style="fill:rgb(0, 0, 0);stroke:none;color:rgb(11, 11, 11);stroke-width:1px;stroke-linecap:butt;stroke-linejoin:miter;opacity:1;font-family:anthropic-sans, -apple-system, BlinkMacSystemFont, &quot;Segoe UI&quot;, sans-serif;font-size:16px;font-weight:400;text-anchor:start;dominant-baseline:auto"><circle cx="475.0" cy="245.2" r="3.5" stroke-width="1" style="fill:rgb(241, 239, 232);stroke:rgb(95, 94, 90);color:rgb(11, 11, 11);stroke-width:1px;stroke-linecap:butt;stroke-linejoin:miter;opacity:1;font-family:anthropic-sans, -apple-system, BlinkMacSystemFont, &quot;Segoe UI&quot;, sans-serif;font-size:16px;font-weight:400;text-anchor:start;dominant-baseline:auto"/></g>
<g style="fill:rgb(0, 0, 0);stroke:none;color:rgb(11, 11, 11);stroke-width:1px;stroke-linecap:butt;stroke-linejoin:miter;opacity:1;font-family:anthropic-sans, -apple-system, BlinkMacSystemFont, &quot;Segoe UI&quot;, sans-serif;font-size:16px;font-weight:400;text-anchor:start;dominant-baseline:auto"><circle cx="289.0" cy="86.0" r="5" stroke-width="1" style="fill:rgb(250, 238, 218);stroke:rgb(133, 79, 11);color:rgb(11, 11, 11);stroke-width:1px;stroke-linecap:butt;stroke-linejoin:miter;opacity:1;font-family:anthropic-sans, -apple-system, BlinkMacSystemFont, &quot;Segoe UI&quot;, sans-serif;font-size:16px;font-weight:400;text-anchor:start;dominant-baseline:auto"/></g>
<g style="fill:rgb(0, 0, 0);stroke:none;color:rgb(11, 11, 11);stroke-width:1px;stroke-linecap:butt;stroke-linejoin:miter;opacity:1;font-family:anthropic-sans, -apple-system, BlinkMacSystemFont, &quot;Segoe UI&quot;, sans-serif;font-size:16px;font-weight:400;text-anchor:start;dominant-baseline:auto"><circle cx="313.0" cy="108.5" r="5" stroke-width="1" style="fill:rgb(250, 238, 218);stroke:rgb(133, 79, 11);color:rgb(11, 11, 11);stroke-width:1px;stroke-linecap:butt;stroke-linejoin:miter;opacity:1;font-family:anthropic-sans, -apple-system, BlinkMacSystemFont, &quot;Segoe UI&quot;, sans-serif;font-size:16px;font-weight:400;text-anchor:start;dominant-baseline:auto"/></g>
<g style="fill:rgb(0, 0, 0);stroke:none;color:rgb(11, 11, 11);stroke-width:1px;stroke-linecap:butt;stroke-linejoin:miter;opacity:1;font-family:anthropic-sans, -apple-system, BlinkMacSystemFont, &quot;Segoe UI&quot;, sans-serif;font-size:16px;font-weight:400;text-anchor:start;dominant-baseline:auto"><circle cx="178.0" cy="63.4" r="5" stroke-width="1" style="fill:rgb(250, 238, 218);stroke:rgb(133, 79, 11);color:rgb(11, 11, 11);stroke-width:1px;stroke-linecap:butt;stroke-linejoin:miter;opacity:1;font-family:anthropic-sans, -apple-system, BlinkMacSystemFont, &quot;Segoe UI&quot;, sans-serif;font-size:16px;font-weight:400;text-anchor:start;dominant-baseline:auto"/></g>

<g style="fill:rgb(0, 0, 0);stroke:none;color:rgb(11, 11, 11);stroke-width:1px;stroke-linecap:butt;stroke-linejoin:miter;opacity:1;font-family:anthropic-sans, -apple-system, BlinkMacSystemFont, &quot;Segoe UI&quot;, sans-serif;font-size:16px;font-weight:400;text-anchor:start;dominant-baseline:auto"><circle cx="224.7" cy="376.1" r="11" stroke-width="1" style="fill:rgb(250, 236, 231);stroke:rgb(153, 60, 29);color:rgb(11, 11, 11);stroke-width:1px;stroke-linecap:butt;stroke-linejoin:miter;opacity:1;font-family:anthropic-sans, -apple-system, BlinkMacSystemFont, &quot;Segoe UI&quot;, sans-serif;font-size:16px;font-weight:400;text-anchor:start;dominant-baseline:auto"/><text x="224.7" y="376.1" text-anchor="middle" dominant-baseline="central" style="fill:rgb(113, 43, 19);stroke:none;color:rgb(11, 11, 11);stroke-width:1px;stroke-linecap:butt;stroke-linejoin:miter;opacity:1;font-family:anthropic-sans, -apple-system, BlinkMacSystemFont, &quot;Segoe UI&quot;, sans-serif;font-size:14px;font-weight:500;text-anchor:middle;dominant-baseline:central">1</text></g>
<g style="fill:rgb(0, 0, 0);stroke:none;color:rgb(11, 11, 11);stroke-width:1px;stroke-linecap:butt;stroke-linejoin:miter;opacity:1;font-family:anthropic-sans, -apple-system, BlinkMacSystemFont, &quot;Segoe UI&quot;, sans-serif;font-size:16px;font-weight:400;text-anchor:start;dominant-baseline:auto"><circle cx="417.7" cy="432.3" r="11" stroke-width="1" style="fill:rgb(250, 236, 231);stroke:rgb(153, 60, 29);color:rgb(11, 11, 11);stroke-width:1px;stroke-linecap:butt;stroke-linejoin:miter;opacity:1;font-family:anthropic-sans, -apple-system, BlinkMacSystemFont, &quot;Segoe UI&quot;, sans-serif;font-size:16px;font-weight:400;text-anchor:start;dominant-baseline:auto"/><text x="417.7" y="432.3" text-anchor="middle" dominant-baseline="central" style="fill:rgb(113, 43, 19);stroke:none;color:rgb(11, 11, 11);stroke-width:1px;stroke-linecap:butt;stroke-linejoin:miter;opacity:1;font-family:anthropic-sans, -apple-system, BlinkMacSystemFont, &quot;Segoe UI&quot;, sans-serif;font-size:14px;font-weight:500;text-anchor:middle;dominant-baseline:central">2</text></g>
<g style="fill:rgb(0, 0, 0);stroke:none;color:rgb(11, 11, 11);stroke-width:1px;stroke-linecap:butt;stroke-linejoin:miter;opacity:1;font-family:anthropic-sans, -apple-system, BlinkMacSystemFont, &quot;Segoe UI&quot;, sans-serif;font-size:16px;font-weight:400;text-anchor:start;dominant-baseline:auto"><circle cx="363.8" cy="367.5" r="11" stroke-width="1" style="fill:rgb(250, 236, 231);stroke:rgb(153, 60, 29);color:rgb(11, 11, 11);stroke-width:1px;stroke-linecap:butt;stroke-linejoin:miter;opacity:1;font-family:anthropic-sans, -apple-system, BlinkMacSystemFont, &quot;Segoe UI&quot;, sans-serif;font-size:16px;font-weight:400;text-anchor:start;dominant-baseline:auto"/><text x="363.8" y="367.5" text-anchor="middle" dominant-baseline="central" style="fill:rgb(113, 43, 19);stroke:none;color:rgb(11, 11, 11);stroke-width:1px;stroke-linecap:butt;stroke-linejoin:miter;opacity:1;font-family:anthropic-sans, -apple-system, BlinkMacSystemFont, &quot;Segoe UI&quot;, sans-serif;font-size:14px;font-weight:500;text-anchor:middle;dominant-baseline:central">3</text></g>
<g style="fill:rgb(0, 0, 0);stroke:none;color:rgb(11, 11, 11);stroke-width:1px;stroke-linecap:butt;stroke-linejoin:miter;opacity:1;font-family:anthropic-sans, -apple-system, BlinkMacSystemFont, &quot;Segoe UI&quot;, sans-serif;font-size:16px;font-weight:400;text-anchor:start;dominant-baseline:auto"><circle cx="401.9" cy="170.8" r="11" stroke-width="1" style="fill:rgb(250, 236, 231);stroke:rgb(153, 60, 29);color:rgb(11, 11, 11);stroke-width:1px;stroke-linecap:butt;stroke-linejoin:miter;opacity:1;font-family:anthropic-sans, -apple-system, BlinkMacSystemFont, &quot;Segoe UI&quot;, sans-serif;font-size:16px;font-weight:400;text-anchor:start;dominant-baseline:auto"/><text x="401.9" y="170.8" text-anchor="middle" dominant-baseline="central" style="fill:rgb(113, 43, 19);stroke:none;color:rgb(11, 11, 11);stroke-width:1px;stroke-linecap:butt;stroke-linejoin:miter;opacity:1;font-family:anthropic-sans, -apple-system, BlinkMacSystemFont, &quot;Segoe UI&quot;, sans-serif;font-size:14px;font-weight:500;text-anchor:middle;dominant-baseline:central">4</text></g>
<g style="fill:rgb(0, 0, 0);stroke:none;color:rgb(11, 11, 11);stroke-width:1px;stroke-linecap:butt;stroke-linejoin:miter;opacity:1;font-family:anthropic-sans, -apple-system, BlinkMacSystemFont, &quot;Segoe UI&quot;, sans-serif;font-size:16px;font-weight:400;text-anchor:start;dominant-baseline:auto"><circle cx="296.1" cy="218.2" r="11" stroke-width="1" style="fill:rgb(250, 236, 231);stroke:rgb(153, 60, 29);color:rgb(11, 11, 11);stroke-width:1px;stroke-linecap:butt;stroke-linejoin:miter;opacity:1;font-family:anthropic-sans, -apple-system, BlinkMacSystemFont, &quot;Segoe UI&quot;, sans-serif;font-size:16px;font-weight:400;text-anchor:start;dominant-baseline:auto"/><text x="296.1" y="218.2" text-anchor="middle" dominant-baseline="central" style="fill:rgb(113, 43, 19);stroke:none;color:rgb(11, 11, 11);stroke-width:1px;stroke-linecap:butt;stroke-linejoin:miter;opacity:1;font-family:anthropic-sans, -apple-system, BlinkMacSystemFont, &quot;Segoe UI&quot;, sans-serif;font-size:14px;font-weight:500;text-anchor:middle;dominant-baseline:central">5</text></g>
<g style="fill:rgb(0, 0, 0);stroke:none;color:rgb(11, 11, 11);stroke-width:1px;stroke-linecap:butt;stroke-linejoin:miter;opacity:1;font-family:anthropic-sans, -apple-system, BlinkMacSystemFont, &quot;Segoe UI&quot;, sans-serif;font-size:16px;font-weight:400;text-anchor:start;dominant-baseline:auto"><circle cx="307.9" cy="123.2" r="11" stroke-width="1" style="fill:rgb(250, 236, 231);stroke:rgb(153, 60, 29);color:rgb(11, 11, 11);stroke-width:1px;stroke-linecap:butt;stroke-linejoin:miter;opacity:1;font-family:anthropic-sans, -apple-system, BlinkMacSystemFont, &quot;Segoe UI&quot;, sans-serif;font-size:16px;font-weight:400;text-anchor:start;dominant-baseline:auto"/><text x="307.9" y="123.2" text-anchor="middle" dominant-baseline="central" style="fill:rgb(113, 43, 19);stroke:none;color:rgb(11, 11, 11);stroke-width:1px;stroke-linecap:butt;stroke-linejoin:miter;opacity:1;font-family:anthropic-sans, -apple-system, BlinkMacSystemFont, &quot;Segoe UI&quot;, sans-serif;font-size:14px;font-weight:500;text-anchor:middle;dominant-baseline:central">6</text></g>
<g style="fill:rgb(0, 0, 0);stroke:none;color:rgb(11, 11, 11);stroke-width:1px;stroke-linecap:butt;stroke-linejoin:miter;opacity:1;font-family:anthropic-sans, -apple-system, BlinkMacSystemFont, &quot;Segoe UI&quot;, sans-serif;font-size:16px;font-weight:400;text-anchor:start;dominant-baseline:auto"><circle cx="212.2" cy="48.9" r="11" stroke-width="1" style="fill:rgb(250, 236, 231);stroke:rgb(153, 60, 29);color:rgb(11, 11, 11);stroke-width:1px;stroke-linecap:butt;stroke-linejoin:miter;opacity:1;font-family:anthropic-sans, -apple-system, BlinkMacSystemFont, &quot;Segoe UI&quot;, sans-serif;font-size:16px;font-weight:400;text-anchor:start;dominant-baseline:auto"/><text x="212.2" y="48.9" text-anchor="middle" dominant-baseline="central" style="fill:rgb(113, 43, 19);stroke:none;color:rgb(11, 11, 11);stroke-width:1px;stroke-linecap:butt;stroke-linejoin:miter;opacity:1;font-family:anthropic-sans, -apple-system, BlinkMacSystemFont, &quot;Segoe UI&quot;, sans-serif;font-size:14px;font-weight:500;text-anchor:middle;dominant-baseline:central">7</text></g>
<g style="fill:rgb(0, 0, 0);stroke:none;color:rgb(11, 11, 11);stroke-width:1px;stroke-linecap:butt;stroke-linejoin:miter;opacity:1;font-family:anthropic-sans, -apple-system, BlinkMacSystemFont, &quot;Segoe UI&quot;, sans-serif;font-size:16px;font-weight:400;text-anchor:start;dominant-baseline:auto"><circle cx="171.7" cy="32.4" r="11" stroke-width="1" style="fill:rgb(250, 236, 231);stroke:rgb(153, 60, 29);color:rgb(11, 11, 11);stroke-width:1px;stroke-linecap:butt;stroke-linejoin:miter;opacity:1;font-family:anthropic-sans, -apple-system, BlinkMacSystemFont, &quot;Segoe UI&quot;, sans-serif;font-size:16px;font-weight:400;text-anchor:start;dominant-baseline:auto"/><text x="171.7" y="32.4" text-anchor="middle" dominant-baseline="central" style="fill:rgb(113, 43, 19);stroke:none;color:rgb(11, 11, 11);stroke-width:1px;stroke-linecap:butt;stroke-linejoin:miter;opacity:1;font-family:anthropic-sans, -apple-system, BlinkMacSystemFont, &quot;Segoe UI&quot;, sans-serif;font-size:14px;font-weight:500;text-anchor:middle;dominant-baseline:central">8</text></g>

<text x="39.0" y="543.0" text-anchor="middle" style="fill:rgb(11, 11, 11);stroke:none;color:rgb(11, 11, 11);stroke-width:1px;stroke-linecap:butt;stroke-linejoin:miter;opacity:1;font-family:anthropic-sans, -apple-system, BlinkMacSystemFont, &quot;Segoe UI&quot;, sans-serif;font-size:14px;font-weight:500;text-anchor:middle;dominant-baseline:auto">Shimla</text>
<text x="212.6" y="362.9" text-anchor="end" style="fill:rgb(11, 11, 11);stroke:none;color:rgb(11, 11, 11);stroke-width:1px;stroke-linecap:butt;stroke-linejoin:miter;opacity:1;font-family:anthropic-sans, -apple-system, BlinkMacSystemFont, &quot;Segoe UI&quot;, sans-serif;font-size:14px;font-weight:500;text-anchor:end;dominant-baseline:auto">Sarahan</text>
<text x="418.0" y="456.5" text-anchor="middle" style="fill:rgb(11, 11, 11);stroke:none;color:rgb(11, 11, 11);stroke-width:1px;stroke-linecap:butt;stroke-linejoin:miter;opacity:1;font-family:anthropic-sans, -apple-system, BlinkMacSystemFont, &quot;Segoe UI&quot;, sans-serif;font-size:14px;font-weight:500;text-anchor:middle;dominant-baseline:auto">Chitkul</text>
<text x="349.8" y="360.4" text-anchor="end" style="fill:rgb(11, 11, 11);stroke:none;color:rgb(11, 11, 11);stroke-width:1px;stroke-linecap:butt;stroke-linejoin:miter;opacity:1;font-family:anthropic-sans, -apple-system, BlinkMacSystemFont, &quot;Segoe UI&quot;, sans-serif;font-size:14px;font-weight:500;text-anchor:end;dominant-baseline:auto">Kalpa</text>
<text x="415.5" y="160.6" text-anchor="start" style="fill:rgb(11, 11, 11);stroke:none;color:rgb(11, 11, 11);stroke-width:1px;stroke-linecap:butt;stroke-linejoin:miter;opacity:1;font-family:anthropic-sans, -apple-system, BlinkMacSystemFont, &quot;Segoe UI&quot;, sans-serif;font-size:14px;font-weight:500;text-anchor:start;dominant-baseline:auto">Tabo</text>
<text x="282.0" y="222.5" text-anchor="end" style="fill:rgb(11, 11, 11);stroke:none;color:rgb(11, 11, 11);stroke-width:1px;stroke-linecap:butt;stroke-linejoin:miter;opacity:1;font-family:anthropic-sans, -apple-system, BlinkMacSystemFont, &quot;Segoe UI&quot;, sans-serif;font-size:14px;font-weight:500;text-anchor:end;dominant-baseline:auto">Mudh</text>
<text x="292.7" y="127.7" text-anchor="end" style="fill:rgb(11, 11, 11);stroke:none;color:rgb(11, 11, 11);stroke-width:1px;stroke-linecap:butt;stroke-linejoin:miter;opacity:1;font-family:anthropic-sans, -apple-system, BlinkMacSystemFont, &quot;Segoe UI&quot;, sans-serif;font-size:14px;font-weight:500;text-anchor:end;dominant-baseline:auto">Kaza</text>
<text x="231.5" y="38.3" text-anchor="start" style="fill:rgb(11, 11, 11);stroke:none;color:rgb(11, 11, 11);stroke-width:1px;stroke-linecap:butt;stroke-linejoin:miter;opacity:1;font-family:anthropic-sans, -apple-system, BlinkMacSystemFont, &quot;Segoe UI&quot;, sans-serif;font-size:14px;font-weight:500;text-anchor:start;dominant-baseline:auto">Losar</text>
<text x="154.1" y="30.0" text-anchor="end" style="fill:rgb(11, 11, 11);stroke:none;color:rgb(11, 11, 11);stroke-width:1px;stroke-linecap:butt;stroke-linejoin:miter;opacity:1;font-family:anthropic-sans, -apple-system, BlinkMacSystemFont, &quot;Segoe UI&quot;, sans-serif;font-size:14px;font-weight:500;text-anchor:end;dominant-baseline:auto">Chandratal</text>
<text x="43.5" y="141.6" text-anchor="middle" style="fill:rgb(11, 11, 11);stroke:none;color:rgb(11, 11, 11);stroke-width:1px;stroke-linecap:butt;stroke-linejoin:miter;opacity:1;font-family:anthropic-sans, -apple-system, BlinkMacSystemFont, &quot;Segoe UI&quot;, sans-serif;font-size:14px;font-weight:500;text-anchor:middle;dominant-baseline:auto">Manali</text>
<text x="488.1" y="249.3" text-anchor="start" style="fill:rgb(82, 81, 78);stroke:none;color:rgb(11, 11, 11);stroke-width:1px;stroke-linecap:butt;stroke-linejoin:miter;opacity:1;font-family:anthropic-sans, -apple-system, BlinkMacSystemFont, &quot;Segoe UI&quot;, sans-serif;font-size:12px;font-weight:400;text-anchor:start;dominant-baseline:auto">Nako</text>
<text x="300.4" y="85.8" text-anchor="start" style="fill:rgb(82, 81, 78);stroke:none;color:rgb(11, 11, 11);stroke-width:1px;stroke-linecap:butt;stroke-linejoin:miter;opacity:1;font-family:anthropic-sans, -apple-system, BlinkMacSystemFont, &quot;Segoe UI&quot;, sans-serif;font-size:12px;font-weight:400;text-anchor:start;dominant-baseline:auto">Kibber · Chicham</text>
<text x="326.5" y="111.4" text-anchor="start" style="fill:rgb(82, 81, 78);stroke:none;color:rgb(11, 11, 11);stroke-width:1px;stroke-linecap:butt;stroke-linejoin:miter;opacity:1;font-family:anthropic-sans, -apple-system, BlinkMacSystemFont, &quot;Segoe UI&quot;, sans-serif;font-size:12px;font-weight:400;text-anchor:start;dominant-baseline:auto">Langza · Hikkim · Komic</text>
<text x="192.7" y="79.5" text-anchor="start" style="fill:rgb(82, 81, 78);stroke:none;color:rgb(11, 11, 11);stroke-width:1px;stroke-linecap:butt;stroke-linejoin:miter;opacity:1;font-family:anthropic-sans, -apple-system, BlinkMacSystemFont, &quot;Segoe UI&quot;, sans-serif;font-size:12px;font-weight:400;text-anchor:start;dominant-baseline:auto">Kunzum La</text>

<g style="fill:rgb(0, 0, 0);stroke:none;color:rgb(11, 11, 11);stroke-width:1px;stroke-linecap:butt;stroke-linejoin:miter;opacity:1;font-family:anthropic-sans, -apple-system, BlinkMacSystemFont, &quot;Segoe UI&quot;, sans-serif;font-size:16px;font-weight:400;text-anchor:start;dominant-baseline:auto"><circle cx="20.0" cy="593.0" r="8" stroke-width="1" style="fill:rgb(250, 236, 231);stroke:rgb(153, 60, 29);color:rgb(11, 11, 11);stroke-width:1px;stroke-linecap:butt;stroke-linejoin:miter;opacity:1;font-family:anthropic-sans, -apple-system, BlinkMacSystemFont, &quot;Segoe UI&quot;, sans-serif;font-size:16px;font-weight:400;text-anchor:start;dominant-baseline:auto"/></g>
<text x="34.0" y="597.0" text-anchor="start" style="fill:rgb(82, 81, 78);stroke:none;color:rgb(11, 11, 11);stroke-width:1px;stroke-linecap:butt;stroke-linejoin:miter;opacity:1;font-family:anthropic-sans, -apple-system, BlinkMacSystemFont, &quot;Segoe UI&quot;, sans-serif;font-size:12px;font-weight:400;text-anchor:start;dominant-baseline:auto">Night halts, in order</text>
<g style="fill:rgb(0, 0, 0);stroke:none;color:rgb(11, 11, 11);stroke-width:1px;stroke-linecap:butt;stroke-linejoin:miter;opacity:1;font-family:anthropic-sans, -apple-system, BlinkMacSystemFont, &quot;Segoe UI&quot;, sans-serif;font-size:16px;font-weight:400;text-anchor:start;dominant-baseline:auto"><circle cx="180.0" cy="593.0" r="5" stroke-width="1" style="fill:rgb(250, 238, 218);stroke:rgb(133, 79, 11);color:rgb(11, 11, 11);stroke-width:1px;stroke-linecap:butt;stroke-linejoin:miter;opacity:1;font-family:anthropic-sans, -apple-system, BlinkMacSystemFont, &quot;Segoe UI&quot;, sans-serif;font-size:16px;font-weight:400;text-anchor:start;dominant-baseline:auto"/></g>
<text x="192.0" y="597.0" text-anchor="start" style="fill:rgb(82, 81, 78);stroke:none;color:rgb(11, 11, 11);stroke-width:1px;stroke-linecap:butt;stroke-linejoin:miter;opacity:1;font-family:anthropic-sans, -apple-system, BlinkMacSystemFont, &quot;Segoe UI&quot;, sans-serif;font-size:12px;font-weight:400;text-anchor:start;dominant-baseline:auto">Day stops above 4,200 m</text>
<g style="fill:rgb(0, 0, 0);stroke:none;color:rgb(11, 11, 11);stroke-width:1px;stroke-linecap:butt;stroke-linejoin:miter;opacity:1;font-family:anthropic-sans, -apple-system, BlinkMacSystemFont, &quot;Segoe UI&quot;, sans-serif;font-size:16px;font-weight:400;text-anchor:start;dominant-baseline:auto"><circle cx="360.0" cy="593.0" r="8" stroke-width="1" style="fill:rgb(241, 239, 232);stroke:rgb(95, 94, 90);color:rgb(11, 11, 11);stroke-width:1px;stroke-linecap:butt;stroke-linejoin:miter;opacity:1;font-family:anthropic-sans, -apple-system, BlinkMacSystemFont, &quot;Segoe UI&quot;, sans-serif;font-size:16px;font-weight:400;text-anchor:start;dominant-baseline:auto"/></g>
<text x="374.0" y="597.0" text-anchor="start" style="fill:rgb(82, 81, 78);stroke:none;color:rgb(11, 11, 11);stroke-width:1px;stroke-linecap:butt;stroke-linejoin:miter;opacity:1;font-family:anthropic-sans, -apple-system, BlinkMacSystemFont, &quot;Segoe UI&quot;, sans-serif;font-size:12px;font-weight:400;text-anchor:start;dominant-baseline:auto">Start and end</text>
<text class="note" x="294.7" y="275.0" text-anchor="middle">SPITI</text><text class="note" x="272.0" y="296.8" text-anchor="middle">KINNAUR</text><text class="note" x="174.0" y="89.4" text-anchor="end">watershed</text><rect x="10" y="185.7" width="150" height="162" rx="8" fill="#f3f2f2" fill-opacity=".92"/><text class="panel-h" x="20" y="202.7">Nights</text><text class="panel-t" x="20" y="221.7"><tspan font-weight="700">1</tspan>  Sarahan</text><text class="panel-t" x="150" y="221.7" text-anchor="end">16 Sep</text><text class="panel-t" x="20" y="238.7"><tspan font-weight="700">2</tspan>  Chitkul</text><text class="panel-t" x="150" y="238.7" text-anchor="end">17 Sep</text><text class="panel-t" x="20" y="255.7"><tspan font-weight="700">3</tspan>  Kalpa</text><text class="panel-t" x="150" y="255.7" text-anchor="end">18 Sep</text><text class="panel-t" x="20" y="272.7"><tspan font-weight="700">4</tspan>  Tabo</text><text class="panel-t" x="150" y="272.7" text-anchor="end">19 Sep</text><text class="panel-t" x="20" y="289.7"><tspan font-weight="700">5</tspan>  Mud</text><text class="panel-t" x="150" y="289.7" text-anchor="end">20 Sep</text><text class="panel-t" x="20" y="306.7"><tspan font-weight="700">6</tspan>  Kaza</text><text class="panel-t" x="150" y="306.7" text-anchor="end">21 Sep</text><text class="panel-t" x="20" y="323.7"><tspan font-weight="700">7</tspan>  Losar</text><text class="panel-t" x="150" y="323.7" text-anchor="end">22 Sep</text><text class="panel-t" x="20" y="340.7"><tspan font-weight="700">8</tspan>  Chandratal</text><text class="panel-t" x="150" y="340.7" text-anchor="end">23 Sep</text><text x="526.1" y="14" text-anchor="end" font-size="10" fill="#555" font-family="system-ui, sans-serif">© OpenStreetMap contributors</text></svg>